# xmcd CD database generated by RipIT
#
# Track frame offsets:
# 182
# 14230
# 24647
# 34757
# 47495
# 60287
# 72562
# 83557
# 95567
# 105835
# 116260
# 126835
# 137550
# 148962
# 159380
# 172042
# 181220
# 193460
# 204225
# 215465
# 226150
# 239145
#
# Disc length: 3359 seconds
#
# Revision: 3
# Processed by: cddbd v1.5.2PL0 Copyright (c) Steve Scherf et al.
# Submitted via: RipIT 3.4 www.suwald.com/ripit/ripit.html at Fr Dez  8 13:45:35 CET 2006
#
DISCID=380d1d16
DTITLE=Jimmy Reed - Big Boss Blues
DYEAR=1953
DGENRE=Blues
TTITLE0=You Don't Have To Go
TTITLE1=I Ain't Got You
TTITLE2=Ain't That Loving You Baby
TTITLE3=Can't Stand To See You Go
TTITLE4=You Got Me Dizzy
TTITLE5=Honest I Do
TTITLE6=Down In Virginia
TTITLE7=I'm Gonna Get My Baby
TTITLE8=I Wanna Be Loved
TTITLE9=Going To New York
TTITLE10=Take Out Some Insurance
TTITLE11=Baby, What You Want Me To Do
TTITLE12=Hush Hush
TTITLE13=Found Love
TTITLE14=Big Boss Man
TTITLE15=I'm A Love You
TTITLE16=Bright Lights, Big City
TTITLE17=Aw Shucks, Hush Your Mouth
TTITLE18=Good Lover
TTITLE19=Too Much
TTITLE20=I'll Change My Style
TTITLE21=Shame, Shame, Shame
EXTD=
EXTT0=
EXTT1=
EXTT2=
EXTT3=
EXTT4=
EXTT5=
EXTT6=
EXTT7=
EXTT8=
EXTT9=
EXTT10=
EXTT11=
EXTT12=
EXTT13=
EXTT14=
EXTT15=
EXTT16=
EXTT17=
EXTT18=
EXTT19=
EXTT20=
EXTT21=
PLAYORDER=
